<?xml version="1.0" encoding="iso-8859-1"?>
<!-- Generator: Adobe Illustrator 16.0.0, SVG Export Plug-In . SVG Version: 6.00 Build 0)  -->
<!DOCTYPE svg PUBLIC "-//W3C//DTD SVG 1.1//EN" "http://www.w3.org/Graphics/SVG/1.1/DTD/svg11.dtd">
<svg version="1.1" id="&#x5716;&#x5C64;_1" xmlns="http://www.w3.org/2000/svg" xmlns:xlink="http://www.w3.org/1999/xlink" x="0px"
	 y="0px" width="300px" height="300px" viewBox="0 0 300 300" style="enable-background:new 0 0 300 300;" xml:space="preserve">
<g>
	<path style="fill:#FFFFFF;" d="M253.876,104.478c5.311-17.156,6.803-42.833,1.336-60.167c-5.906-18.739-23.482-36.612-55.45-42.446
		c-13.313-2.431-26.16-0.474-35.301,2.767c-16.855,5.981-25.094,18.549-26.843,28.607c-1.753-10.058-9.988-22.616-26.852-28.593
		c-9.134-3.248-21.976-5.176-35.3-2.745C43.5,7.741,25.931,25.66,20.026,44.4c-5.462,17.326-3.982,42.921,1.326,60.077
		c5.729,18.489,23.072,42.627,49.461,57.965c-5.95,3.364-11.327,7.483-15.841,12.549c-16.006,17.953-19.934,36.188-19.934,62.026
		c0,56.204,47.194,62.426,103.842,62.426c56.659,0,101.313-6.222,101.313-62.426c0-25.839-2.478-44.073-18.485-62.026
		c-4.671-5.236-10.329-9.482-16.66-12.907C231.095,146.73,248.207,122.839,253.876,104.478z M85.523,109.457
		c-4.98,0-9.028-4.037-9.028-9.038s4.047-9.023,9.028-9.023c4.993,0,9.031,4.022,9.031,9.023S90.516,109.457,85.523,109.457z
		 M138.624,271.697c-5.258,0-9.508-4.253-9.508-9.503c0-5.257,4.25-9.506,9.508-9.506s9.511,4.249,9.511,9.506
		C148.135,267.444,143.882,271.697,138.624,271.697z M138.624,237.475c-5.258,0-9.508-4.249-9.508-9.506
		c0-5.248,4.25-9.504,9.508-9.504s9.511,4.256,9.511,9.504C148.135,233.226,143.882,237.475,138.624,237.475z M136.522,130.215
		c-11.57-0.625-19.266-9.504-19.799-20.851c-0.338-7.33,11.043-7.308,11.38,0c0.569,12.036,16.271,12.036,16.834,0
		c0.346-7.308,11.736-7.33,11.383,0C155.833,119.742,148.074,130.841,136.522,130.215z M187.522,109.457
		c-4.997,0-9.034-4.037-9.034-9.038s4.037-9.023,9.034-9.023c4.988,0,9.04,4.022,9.04,9.023S192.511,109.457,187.522,109.457z"/>
	<path style="fill:#FFC719;" d="M264.042,150.504c0.402-0.536,0.817-1.09,1.216-1.633c6.201-8.304,1.368-21.164-6.797-25.957
		c-9.68-5.674-19.789-1.448-25.964,6.802c-7.37,9.887-14.746,19.77-22.125,29.661c-8.983,12.037,3.302,28.357,16.386,28.545
		c12.338,0.176,24.659,0.339,36.991,0.516C288.131,188.781,288.189,151.157,264.042,150.504z"/>
	<path style="fill:#FFC719;" d="M214.807,142.952c-24.426,6.627-51.54,5.866-76.692,6.062c-26.466,0.203-53.949,0.102-79.865-5.651
		c-35.759-7.937-50.962,46.927-15.135,54.89c30.979,6.868,63.364,7.773,95,7.672c30.13-0.089,62.598-0.162,91.821-8.09
		C265.321,188.23,250.281,133.335,214.807,142.952L214.807,142.952z"/>
</g>
</svg>
